<?xml version="1.0" encoding="UTF-8" standalone="no"?>
<svg
   id="svg"
   version="1.1"
   width="400"
   height="400"
   viewBox="0, 0, 400,400"
   sodipodi:docname="ring.svg"
   inkscape:version="1.1.2 (b8e25be833, 2022-02-05)"
   xmlns:inkscape="http://www.inkscape.org/namespaces/inkscape"
   xmlns:sodipodi="http://sodipodi.sourceforge.net/DTD/sodipodi-0.dtd"
   xmlns="http://www.w3.org/2000/svg"
   xmlns:svg="http://www.w3.org/2000/svg">
  <defs
     id="defs29">
    <linearGradient
       id="linearGradient3238"
       inkscape:swatch="solid">
      <stop
         style="stop-color:#f2f2f2;stop-opacity:1;"
         offset="0"
         id="stop3236" />
    </linearGradient>
  </defs>
  <sodipodi:namedview
     id="namedview27"
     pagecolor="#505050"
     bordercolor="#eeeeee"
     borderopacity="1"
     inkscape:pageshadow="0"
     inkscape:pageopacity="0"
     inkscape:pagecheckerboard="0"
     showgrid="false"
     inkscape:zoom="2.02"
     inkscape:cx="252.22772"
     inkscape:cy="200"
     inkscape:window-width="1920"
     inkscape:window-height="1017"
     inkscape:window-x="-8"
     inkscape:window-y="-8"
     inkscape:window-maximized="1"
     inkscape:current-layer="svg" />
  <path
     id="path307"
     style="fill:#ffffff;fill-rule:evenodd;stroke-width:1.16667"
     d="M 200,25 A 175,175 0 0 0 25,200 175,175 0 0 0 200,375 175,175 0 0 0 375,200 175,175 0 0 0 200,25 Z m 0,18.918919 A 156.08108,156.08108 0 0 1 356.08108,200 156.08108,156.08108 0 0 1 200,356.08108 156.08108,156.08108 0 0 1 43.918919,200 156.08108,156.08108 0 0 1 200,43.918919 Z" />
  <path
     id="path6850"
     style="fill:#ffffff;fill-rule:evenodd;stroke-width:1.33334;fill-opacity:0"
     d="M 200.00001,0 A 199.99999,199.99999 0 0 0 0,200.00001 199.99999,199.99999 0 0 0 200.00001,400 199.99999,199.99999 0 0 0 400,200.00001 199.99999,199.99999 0 0 0 200.00001,0 Z m 0,21.621621 A 178.37837,178.37837 0 0 1 378.37838,200.00001 178.37837,178.37837 0 0 1 200.00001,378.37838 178.37837,178.37837 0 0 1 21.621621,200.00001 178.37837,178.37837 0 0 1 200.00001,21.621621 Z" />
</svg>
